# xmcd CD database file
# Generated: Sat Jul 19 22:43:45 2003 by KSCD
#
# Track frame offsets:
#       151
#       28136
#       62638
#       81565
#       106286
#       136358
#       171346
#       190573
#       215256
#       242553
#       266931
#       302381
#
# Disc length: 4162 seconds
#
# Revision: 3
# Processed by: cddbd v1.5.1PL0 Copyright (c) Steve Scherf et al.
# Submitted via: Kscd 1.3.3
#
DISCID=a610400c
DTITLE=Emilie-Claire Barlow - Happyfeet
DYEAR=2003
DGENRE=Jazz
TTITLE0=Gentle Rain
TTITLE1=Freddie Freeloader
TTITLE2=Bem Bom
TTITLE3=I'll Be Around
TTITLE4=Joy Spring
TTITLE5=Bye Bye Blackbird
TTITLE6=I'm Old Fashioned
TTITLE7=It's Only a Paper Moon
TTITLE8=Stompin' at the Savoy
TTITLE9=Smoke Gets in Your Eyes
TTITLE10=Broadway
TTITLE11=Zabumba No Mar
EXTD=YEAR: 2003. Emilie Claire is sexy, funny, talented, young, pretty.. an
EXTD=d has a fantastic voice and sense of thythm. You HAVE to see her live.
EXTD=\n
EXTT0=
EXTT1=
EXTT2=
EXTT3=
EXTT4=
EXTT5=
EXTT6=
EXTT7=
EXTT8=
EXTT9=
EXTT10=
EXTT11=
PLAYORDER=
